# xmcd
#
# Track frame offsets:
#	150
#	16508
#	31373
#	41531
#	54410
#	64968
#	87710
#	98765
#	116420
#	131632
#	145973
#	160602
#	172210
#	175766
#	187265
#	196727
#	205599
#	217396
#	230618
#	241095
#	251994
#	261692
#	273828
#	284754
#	299478
#	311720
#	322371
#	335459
#
# Disc length: 4669 seconds
# Revision: 0
# Processed by: cddbd v1.5.2PL0 Copyright (c) Steve Scherf et al.
# Submitted via: dBpowerAMP V12.0
#
DISCID=c0123b1c
DTITLE=Various Artist - Singin' In The Kitchen [Bonus Tracks] [Remastered 2008]
DYEAR=1974
DGENRE=Country*
TTITLE0=Bobby and The Family Bare - Singin' In The Kitchen
TTITLE1=Bobby and The Family Bare - The Monkey And The Elephant
TTITLE2=Bobby and The Family Bare - Lovin' You Anyway
TTITLE3=Bobby and The Family Bare - Where'd I Come From
TTITLE4=Bobby and The Family Bare - The Ricky Ticky Song
TTITLE5=Bobby and The Family Bare - The Giving Tree
TTITLE6=Bobby and The Family Bare - You Are
TTITLE7=Bobby and The Family Bare - The Unicorn
TTITLE8=Bobby and The Family Bare - A Cloudy Sky
TTITLE9=Bobby and The Family Bare - She Thinks I Can
TTITLE10=Jeannie Bare - Scarlet Ribbons
TTITLE11=Bobby and The Family Bare - See That Bluebird
TTITLE12=Bobby and The Family Bare - Singin' In The Kitchen {Reprise} {*}
TTITLE13=Bobby Bare - Less Of Me {*}
TTITLE14=Bobby Bare - {There Was A} Tall Oak Tree {*}
TTITLE15=Bobby Bare - When I've Learned {*}
TTITLE16=Bobby Bare - The Family Bible {*}
TTITLE17=Bobby Bare - Lonesome Valley {*}
TTITLE18=Bobby Bare - When God Dips His Love In My Heart {*}
TTITLE19=Bobby Bare - I Saw The Light {*}
TTITLE20=Bobby Bare - He's Got The Whole World In His Hands {*}
TTITLE21=Bobby Bare - Just A Closer Walk With Thee {*}
TTITLE22=Bobby Bare - I'll Fly Away {*}
TTITLE23=Bobby Bare - Chicago Story {*}
TTITLE24=Bobby Bare - Barbara Joy {*}
TTITLE25=Bobby Bare - Maggie {I Wish We'd Never Met} {*}
TTITLE26=Bobby Bare - Poison Red Berries {*}
TTITLE27=Bobby Bare - Which One Will It Be {*}
EXTD=
EXTT0=
EXTT1=
EXTT2=
EXTT3=
EXTT4=
EXTT5=
EXTT6=
EXTT7=
EXTT8=
EXTT9=
EXTT10=
EXTT11=
EXTT12=
EXTT13=
EXTT14=
EXTT15=
EXTT16=
EXTT17=
EXTT18=
EXTT19=
EXTT20=
EXTT21=
EXTT22=
EXTT23=
EXTT24=
EXTT25=
EXTT26=
EXTT27=
PLAYORDER=
